<svg xmlns="http://www.w3.org/2000/svg" width="64.787" height="84.27" viewBox="0 0 64.787 84.27"><defs><style>.a{fill:#eb2e22;}.b{fill:none;}.c{fill:#fff;}</style></defs><g transform="translate(0 46.939)"><g transform="translate(27.662)"><path class="a" d="M423.2,274.729l-16.064-29.2,1.712-.938L423.1,270.5l5.422-11.028,12.216,1.354-12.284-22.486,1.712-.938,14.089,25.777-14.586-1.617Z" transform="translate(-407.135 -237.399)"/></g><g transform="translate(0 0.001)"><path class="a" d="M413.292,273.59h-.021a.978.978,0,0,1-.853-.547l-5.648-11.486-12.718,1.412a.984.984,0,0,1-.92-.428.972.972,0,0,1-.045-1.011l13.006-23.623a.976.976,0,0,1,1.712.937l-12.1,21.979,11.534-1.281a.98.98,0,0,1,.984.541L413.34,270.5l10.771-19.637a.976.976,0,0,1,1.712.937l-11.675,21.284A.981.981,0,0,1,413.292,273.59Z" transform="translate(-392.966 -237.399)"/></g></g><g transform="translate(4.213 0)"><ellipse class="b" cx="26.814" cy="26.814" rx="26.814" ry="26.814" transform="translate(0.976 0.976)"/><path class="a" d="M422.914,268.937a27.791,27.791,0,1,1,27.792-27.792A27.822,27.822,0,0,1,422.914,268.937Zm0-53.629a25.838,25.838,0,1,0,25.839,25.837A25.866,25.866,0,0,0,422.914,215.308Z" transform="translate(-395.124 -213.356)"/></g><g transform="translate(14.043 9.832)"><ellipse class="c" cx="16.983" cy="16.983" rx="16.983" ry="16.983" transform="translate(0.976 0.975)"/><path class="a" d="M418.119,254.309a17.959,17.959,0,1,1,17.96-17.96A17.981,17.981,0,0,1,418.119,254.309Zm0-33.965a16.006,16.006,0,1,0,16.007,16.005A16.024,16.024,0,0,0,418.119,220.344Z" transform="translate(-400.159 -218.392)"/></g></svg>