<svg xmlns="http://www.w3.org/2000/svg" width="53.532" height="87.116" viewBox="0 0 53.532 87.116"><defs><style>.a{fill:#eb2e22;}.b{fill:none;}</style></defs><g transform="translate(2.288 54.176)"><path class="a" d="M549.457,247.918h-47a.975.975,0,0,1-.976-.976v-6.318a.975.975,0,0,1,.976-.976h47a.975.975,0,0,1,.976.976v6.318A.975.975,0,0,1,549.457,247.918Zm-46.026-1.952h45.05V241.6H503.43Z" transform="translate(-501.478 -239.648)"/><g transform="translate(2.846 6.318)"><path class="a" d="M537.815,269.506h-26.5a4.984,4.984,0,0,1-4.959-4.264l-3.413-21.228a.976.976,0,0,1,.965-1.13h41.309a.976.976,0,0,1,.964,1.13l-3.413,21.236A4.986,4.986,0,0,1,537.815,269.506Zm-32.756-24.67,3.231,20.105a3.046,3.046,0,0,0,3.03,2.612h26.5a3.046,3.046,0,0,0,3.03-2.6l3.233-20.113Z" transform="translate(-502.936 -242.884)"/></g><g transform="translate(36.098 10.763)"><path class="a" d="M520.947,262.89a1.089,1.089,0,0,1-.158-.012.976.976,0,0,1-.808-1.119l2.536-15.777a.977.977,0,1,1,1.929.308l-2.536,15.777A.977.977,0,0,1,520.947,262.89Z" transform="translate(-519.968 -245.161)"/></g></g><g transform="translate(0 0)"><g transform="translate(20.259)"><path class="b" d="M516.734,252.184c12.534-21.786,0-39.8,0-39.8S504.2,230.4,516.734,252.184Z" transform="translate(-510.226 -211.434)"/><path class="a" d="M517.189,253.623a.976.976,0,0,1-.845-.488,39.557,39.557,0,0,1,.045-40.841,1.01,1.01,0,0,1,1.6,0,39.562,39.562,0,0,1,.045,40.841A.976.976,0,0,1,517.189,253.623Zm0-38.881a37.665,37.665,0,0,0,0,35.88A37.584,37.584,0,0,0,517.19,214.742Z" transform="translate(-510.683 -211.898)"/></g><g transform="translate(0 19.375)"><path class="b" d="M526.6,243.558c-7.429-19.748-25.79-21.236-25.79-21.236S505.788,240.057,526.6,243.558Z" transform="translate(-499.83 -221.347)"/><path class="a" d="M527.071,245.009a.923.923,0,0,1-.162-.014,33.371,33.371,0,0,1-26.567-21.935.98.98,0,0,1,.187-.882.963.963,0,0,1,.832-.353,33.367,33.367,0,0,1,26.624,21.864.974.974,0,0,1-.914,1.32Zm-24.309-21A31.452,31.452,0,0,0,525.5,242.737,31.38,31.38,0,0,0,502.762,224.014Z" transform="translate(-500.306 -221.823)"/><g transform="translate(2.611 20.098)"><path class="b" d="M525.323,233.95a22.724,22.724,0,0,0-23.18,4.666A22.726,22.726,0,0,0,525.323,233.95Z" transform="translate(-501.167 -231.646)"/><path class="a" d="M510.342,241.394a22.614,22.614,0,0,1-8.112-1.413.976.976,0,0,1-.316-1.57,23.893,23.893,0,0,1,24.2-4.916.976.976,0,0,1,.332,1.66A23.936,23.936,0,0,1,510.342,241.394Zm-5.828-2.69a21.593,21.593,0,0,0,19.246-3.873A21.6,21.6,0,0,0,504.515,238.7Z" transform="translate(-501.643 -232.117)"/></g></g><g transform="translate(25.789 19.375)"><g transform="translate(0.001)"><path class="b" d="M514.016,243.558c7.427-19.748,25.788-21.236,25.788-21.236S534.822,240.057,514.016,243.558Z" transform="translate(-513.04 -221.347)"/><path class="a" d="M514.49,245.009a.974.974,0,0,1-.912-1.32A33.37,33.37,0,0,1,540.2,221.825a.976.976,0,0,1,1.019,1.238A33.374,33.374,0,0,1,514.652,245,.894.894,0,0,1,514.49,245.009Zm24.31-20.992a31.461,31.461,0,0,0-22.735,18.719A31.454,31.454,0,0,0,538.8,224.018Z" transform="translate(-513.516 -221.823)"/></g><g transform="translate(0 20.098)"><path class="b" d="M514.016,233.95a22.721,22.721,0,0,1,23.178,4.666A22.723,22.723,0,0,1,514.016,233.95Z" transform="translate(-513.039 -231.646)"/><path class="a" d="M529.946,241.395a23.939,23.939,0,0,1-16.1-6.24.977.977,0,0,1,.334-1.66,23.889,23.889,0,0,1,24.2,4.916.976.976,0,0,1-.316,1.57A22.618,22.618,0,0,1,529.946,241.395Zm-13.417-6.564a21.58,21.58,0,0,0,19.246,3.873A21.6,21.6,0,0,0,516.529,234.831Z" transform="translate(-513.515 -232.117)"/></g></g><g transform="translate(25.788 41.644)"><path class="a" d="M514.491,247.713a.975.975,0,0,1-.976-.976V234.205a.976.976,0,1,1,1.952,0v12.532A.974.974,0,0,1,514.491,247.713Z" transform="translate(-513.515 -233.229)"/></g></g></svg>