<svg id="Layer_1" data-name="Layer 1" xmlns="http://www.w3.org/2000/svg" viewBox="0 0 46.72 41.21"><defs><style>.cls-1{fill:#eb2e22;}.cls-2{fill:none;}</style></defs><title>two_hands_and_a_leaf</title><path class="cls-1" d="M34.22,41.21h-9a.5.5,0,0,1-.5-.5V38.49c-.12-.59-.95-5.39,1.89-8.36a13.43,13.43,0,0,1,4.7-3.21A5.51,5.51,0,0,0,32.86,26l3.55-3.55a2.64,2.64,0,0,1,3.37-.24l1.68-2.52a31.43,31.43,0,0,1,.27-4.79,3.8,3.8,0,0,1,1.55-2.89,4,4,0,0,1,3.08-.39.49.49,0,0,1,.36.48l0,9.15a.57.57,0,0,1,0,.18l-2.78,7.38a.66.66,0,0,1-.12.17l-8.3,8.3a1.93,1.93,0,0,0-.68,1.15l0,2.25A.5.5,0,0,1,34.22,41.21Zm-8.48-1h8l0-1.73a2.64,2.64,0,0,1,1-1.86L43,28.39l2.71-7.19,0-8.66a2.87,2.87,0,0,0-1.89.35,2.86,2.86,0,0,0-1.11,2.17,28.88,28.88,0,0,0-.25,4.78.56.56,0,0,1-.09.31L40.47,23a2.65,2.65,0,0,1,.34,1.3,2.56,2.56,0,0,1-.75,1.83l-4.93,4.92a.5.5,0,0,1-.7,0,.5.5,0,0,1,0-.71l4.92-4.92a1.59,1.59,0,0,0,0-2.24,1.62,1.62,0,0,0-2.24,0l-3.54,3.55a6.19,6.19,0,0,1-1.83,1.08,12.48,12.48,0,0,0-4.39,3c-2.59,2.72-1.63,7.47-1.62,7.52a.34.34,0,0,1,0,.1Z"/><path class="cls-1" d="M21.43,41.21h-9a.5.5,0,0,1-.5-.49l0-2.22a1.88,1.88,0,0,0-.68-1.18L2.93,29a.45.45,0,0,1-.11-.17L0,21.47a.57.57,0,0,1,0-.18l0-9.15a.5.5,0,0,1,.36-.48,4,4,0,0,1,3.08.39A3.84,3.84,0,0,1,5,14.94a32.3,32.3,0,0,1,.26,4.79l1.68,2.52a2.59,2.59,0,0,1,3.38.24L13.81,26a5.59,5.59,0,0,0,1.54.88A13.41,13.41,0,0,1,20,30.13c2.84,3,2,7.77,1.89,8.36v2.22A.5.5,0,0,1,21.43,41.21Zm-8.49-1h8V38.44a.34.34,0,0,1,0-.1c0-.05,1-4.8-1.62-7.52a12.48,12.48,0,0,0-4.39-3,6.19,6.19,0,0,1-1.83-1.08L9.56,23.2a1.58,1.58,0,0,0-2.24,2.24l4.92,4.92a.5.5,0,0,1,0,.71.5.5,0,0,1-.7,0L6.61,26.15a2.56,2.56,0,0,1-.75-1.83A2.65,2.65,0,0,1,6.2,23L4.29,20.15a.48.48,0,0,1-.08-.31A31.19,31.19,0,0,0,4,15.06a2.89,2.89,0,0,0-1.1-2.17A2.89,2.89,0,0,0,1,12.54L1,21.2l2.71,7.19,8.23,8.23a2.63,2.63,0,0,1,1,1.9Z"/><path class="cls-2" d="M30.25,15.25a6.92,6.92,0,0,1-13.83,0C16.42,11.43,23.34.5,23.34.5S30.25,11.43,30.25,15.25Z"/><path class="cls-1" d="M23.34,22.66a7.42,7.42,0,0,1-7.42-7.41c0-3.92,6.71-14.57,7-15A.52.52,0,0,1,23.34,0h0a.5.5,0,0,1,.42.23c.28.45,7,11.1,7,15A7.42,7.42,0,0,1,23.34,22.66Zm0-21.21c-1.5,2.43-6.42,10.7-6.42,13.8a6.42,6.42,0,0,0,12.83,0C29.75,12.15,24.83,3.88,23.34,1.45Z"/><path class="cls-1" d="M23.34,26.86a.5.5,0,0,1-.5-.5V.5a.5.5,0,0,1,.5-.5.5.5,0,0,1,.5.5V26.36A.5.5,0,0,1,23.34,26.86Z"/><path class="cls-1" d="M23.34,18.67a.51.51,0,0,1-.36-.15.5.5,0,0,1,0-.7l3.94-3.94a.5.5,0,0,1,.71,0,.48.48,0,0,1,0,.7l-3.94,3.94A.5.5,0,0,1,23.34,18.67Z"/><path class="cls-1" d="M23,15a.54.54,0,0,1-.35-.14l-3-3a.51.51,0,0,1,0-.71.5.5,0,0,1,.71,0l3,3a.51.51,0,0,1,0,.71A.54.54,0,0,1,23,15Z"/></svg>