<svg xmlns="http://www.w3.org/2000/svg" width="82.122" height="74.859" viewBox="0 0 82.122 74.859"><defs><style>.a{fill:#eb2e22;}.b{fill:none;}</style></defs><g transform="translate(62.593 6.634)"><path class="a" d="M653.214,289.8a8.426,8.426,0,0,1-8.417-8.417V222.551a.976.976,0,1,1,1.952,0v58.832a6.463,6.463,0,1,0,12.927,0V222.551a.976.976,0,0,1,1.952,0v58.832A8.425,8.425,0,0,1,653.214,289.8Z" transform="translate(-644.797 -221.575)"/></g><g transform="translate(0 0)"><g transform="translate(0 6.718)"><path class="a" d="M656.474,289.759H623.755a11,11,0,0,1-9.424-16.671l14.32-23.8V222.594a.976.976,0,0,1,1.952,0V249.56a1,1,0,0,1-.139.5L616,274.095a9.048,9.048,0,0,0,7.751,13.711h32.719a9.048,9.048,0,0,0,7.751-13.711l-14.459-24.031a.979.979,0,0,1-.139-.5V222.594a.976.976,0,0,1,1.952,0v26.694l14.318,23.8a11,11,0,0,1-9.424,16.671Z" transform="translate(-612.736 -221.618)"/></g><g transform="translate(11.981)"><path class="a" d="M648.691,226.847H619.849a.975.975,0,0,1-.976-.976v-6.718a.975.975,0,0,1,.976-.976h28.842a.975.975,0,0,1,.976.976v6.718A.975.975,0,0,1,648.691,226.847ZM620.825,224.9h26.89v-4.766h-26.89Z" transform="translate(-618.873 -218.177)"/></g><g transform="translate(15.915 16.532)"><path class="a" d="M627.926,228.6h-6.062a.976.976,0,1,1,0-1.952h6.062a.976.976,0,1,1,0,1.952Z" transform="translate(-620.888 -226.645)"/></g><g transform="translate(15.915 22.214)"><path class="a" d="M627.926,231.507h-6.062a.976.976,0,1,1,0-1.952h6.062a.976.976,0,1,1,0,1.952Z" transform="translate(-620.888 -229.555)"/></g><g transform="translate(15.915 27.893)"><path class="a" d="M627.926,234.416h-6.062a.976.976,0,1,1,0-1.952h6.062a.976.976,0,1,1,0,1.952Z" transform="translate(-620.888 -232.464)"/></g><g transform="translate(0 50.097)"><path class="b" d="M660,244.337H619.272l-4.582,7.618a10.021,10.021,0,0,0,8.586,15.189H656a10.021,10.021,0,0,0,8.586-15.189Z" transform="translate(-612.258 -243.361)"/><path class="a" d="M656.474,268.6H623.755a11,11,0,0,1-9.424-16.671l4.584-7.618a.976.976,0,0,1,.836-.472h40.728a.975.975,0,0,1,.836.472l4.584,7.618a11,11,0,0,1-9.424,16.671ZM620.3,245.789l-4.3,7.146a9.048,9.048,0,0,0,7.751,13.711h32.719a9.048,9.048,0,0,0,7.751-13.711l-4.3-7.146Z" transform="translate(-612.736 -243.837)"/></g></g><g transform="translate(59.895 0.234)"><path class="a" d="M664.666,226.733H644.391a.975.975,0,0,1-.976-.976v-6.484a.977.977,0,0,1,.976-.976h20.275a.977.977,0,0,1,.976.976v6.484A.975.975,0,0,1,664.666,226.733Zm-19.3-1.952H663.69v-4.531H645.367Z" transform="translate(-643.415 -218.297)"/></g><g transform="translate(63.337 34.33)"><path class="a" d="M660.289,237.713H646.154a.976.976,0,1,1,0-1.952h14.135a.976.976,0,1,1,0,1.952Z" transform="translate(-645.178 -235.761)"/></g></svg>