<svg xmlns="http://www.w3.org/2000/svg" width="22.288" height="20.36" viewBox="0 0 22.288 20.36"><g transform="translate(0)"><path fill="#ffffff" d="M.724,192.963h2.9a.724.724,0,0,0,.724-.724V179.574a.724.724,0,0,0-.724-.724H.724a.724.724,0,0,0-.724.724v12.665A.724.724,0,0,0,.724,192.963Z" transform="translate(0 -172.603)"/><path fill="#ffffff"  d="M.724,27.937h2.9a.724.724,0,0,0,.724-.724V24.64a.724.724,0,0,0-.724-.724H.724A.724.724,0,0,0,0,24.64v2.573A.724.724,0,0,0,.724,27.937Z" transform="translate(0 -23.916)"/><path fill="#ffffff" d="M195.422,171.485a4.406,4.406,0,0,0-1.8-1.322,6.523,6.523,0,0,0-2.629-.518,6.438,6.438,0,0,0-4.947,2.229c-.269.3-.465.231-.465-.169v-.965a.724.724,0,0,0-.724-.724h-2.588a.724.724,0,0,0-.724.724V183.4a.724.724,0,0,0,.724.724h2.9a.724.724,0,0,0,.724-.724V179a14.169,14.169,0,0,1,.332-3.773,3.116,3.116,0,0,1,1.229-1.639,3.484,3.484,0,0,1,2.026-.619,2.585,2.585,0,0,1,1.508.433,2.413,2.413,0,0,1,.9,1.214,12.95,12.95,0,0,1,.278,3.441V183.4a.724.724,0,0,0,.724.724h2.9a.724.724,0,0,0,.724-.724v-7.172a13.583,13.583,0,0,0-.24-2.922A4.787,4.787,0,0,0,195.422,171.485Z" transform="translate(-174.224 -163.769)"/></g></svg>
