<svg xmlns="http://www.w3.org/2000/svg" width="87.527" height="74.38" viewBox="0 0 87.527 74.38"><defs><style>.a{fill:#eb2e22;}.b{fill:none;}</style></defs><g transform="translate(18.359 23.571)"><g transform="translate(0 24.428)"><path class="a" d="M299.881,269.389h-24.43a.977.977,0,0,1-.976-.976v-24.43a.975.975,0,0,1,.976-.976h24.43a.975.975,0,0,1,.976.976v24.43A.977.977,0,0,1,299.881,269.389Zm-23.453-1.952H298.9V244.959H276.427Z" transform="translate(-274.475 -243.007)"/></g><g transform="translate(7.86 34.275)"><path class="a" d="M288.187,255.306h-8.709a.975.975,0,0,1-.976-.976v-5.3a.974.974,0,0,1,.976-.976h8.709a.975.975,0,0,1,.976.976v5.3A.977.977,0,0,1,288.187,255.306Zm-7.733-1.952h6.757V250h-6.757Z" transform="translate(-278.501 -248.051)"/></g><g transform="translate(24.43 24.428)"><path class="a" d="M312.392,269.389H287.964a.975.975,0,0,1-.976-.976v-24.43a.974.974,0,0,1,.976-.976h24.428a.975.975,0,0,1,.976.976v24.43A.977.977,0,0,1,312.392,269.389Zm-23.451-1.952h22.475V244.959H288.94Z" transform="translate(-286.988 -243.007)"/></g><g transform="translate(32.288 34.275)"><path class="a" d="M300.7,255.306h-8.709a.977.977,0,0,1-.976-.976v-5.3a.975.975,0,0,1,.976-.976H300.7a.974.974,0,0,1,.976.976v5.3A.975.975,0,0,1,300.7,255.306Zm-7.733-1.952h6.757V250h-6.757Z" transform="translate(-291.013 -248.051)"/></g><g transform="translate(12.216)"><path class="a" d="M306.134,256.875H281.708a.975.975,0,0,1-.976-.976V231.471a.975.975,0,0,1,.976-.976h24.426a.975.975,0,0,1,.976.976V255.9A.975.975,0,0,1,306.134,256.875Zm-23.45-1.952h22.473V232.447H282.684Z" transform="translate(-280.732 -230.495)"/></g><g transform="translate(20.074 9.848)"><path class="a" d="M294.443,242.794h-8.709a.975.975,0,0,1-.976-.976v-5.3a.974.974,0,0,1,.976-.976h8.709a.974.974,0,0,1,.976.976v5.3A.975.975,0,0,1,294.443,242.794Zm-7.733-1.952h6.757v-3.35h-6.757Z" transform="translate(-284.757 -235.539)"/></g></g><g transform="translate(7.765 26.54)"><path class="a" d="M270.025,279.856a.975.975,0,0,1-.976-.976V232.992a.976.976,0,1,1,1.952,0V278.88A.977.977,0,0,1,270.025,279.856Z" transform="translate(-269.049 -232.016)"/><g transform="translate(70.044 0.488)"><path class="a" d="M305.9,279.618a.977.977,0,0,1-.976-.976v-45.4a.976.976,0,1,1,1.952,0v45.4A.975.975,0,0,1,305.9,279.618Z" transform="translate(-304.926 -232.266)"/></g></g><g transform="translate(0 0)"><path class="b" d="M343.162,246.335a43.447,43.447,0,0,0-69.607,0l-7.983-5.976a53.418,53.418,0,0,1,85.573,0Z" transform="translate(-264.595 -217.946)"/><path class="a" d="M274.03,247.785a.975.975,0,0,1-.584-.193l-7.983-5.976a.977.977,0,0,1-.2-1.367,54.4,54.4,0,0,1,87.139,0,.977.977,0,0,1-.2,1.367l-7.983,5.976a.97.97,0,0,1-.724.185.987.987,0,0,1-.642-.383,42.473,42.473,0,0,0-68.045,0,.991.991,0,0,1-.642.383A1.125,1.125,0,0,1,274.03,247.785Zm34.806-19.391a44.053,44.053,0,0,1,34.992,17.056l6.421-4.807a52.443,52.443,0,0,0-82.828,0l6.421,4.807A44.057,44.057,0,0,1,308.836,228.395Z" transform="translate(-265.072 -218.422)"/><path class="b" d="M343.162,246.335a43.447,43.447,0,0,0-69.607,0l-7.983-5.976a53.418,53.418,0,0,1,85.573,0Z" transform="translate(-264.595 -217.946)"/><path class="a" d="M274.03,247.785a.975.975,0,0,1-.584-.193l-7.983-5.976a.977.977,0,0,1-.2-1.367,54.4,54.4,0,0,1,87.139,0,.977.977,0,0,1-.2,1.367l-7.983,5.976a.97.97,0,0,1-.724.185.987.987,0,0,1-.642-.383,42.473,42.473,0,0,0-68.045,0,.991.991,0,0,1-.642.383A1.125,1.125,0,0,1,274.03,247.785Zm34.806-19.391a44.053,44.053,0,0,1,34.992,17.056l6.421-4.807a52.443,52.443,0,0,0-82.828,0l6.421,4.807A44.057,44.057,0,0,1,308.836,228.395Z" transform="translate(-265.072 -218.422)"/></g></svg>