<svg xmlns="http://www.w3.org/2000/svg" width="21.922" height="18.563" viewBox="0 0 21.922 18.563"><g transform="translate(0 0)"><g transform="translate(0 0)"><path fill="#ffffff" d="M21.279,44.271q-.162.047-.324.088c-.661.167-.721-.053-.243-.539a4.408,4.408,0,0,0,.568-.71c.368-.573.049-.823-.578-.555q-.335.143-.681.259a2.849,2.849,0,0,1-2.138-.475,4.73,4.73,0,0,0-5.791.679,4.516,4.516,0,0,0-1.371,3.314,4.948,4.948,0,0,0,.03.539c.033.3-.467.512-1.142.417a12.964,12.964,0,0,1-4.16-1.326A13.34,13.34,0,0,1,2,43.425c-.477-.487-1.121-.445-1.3.212a4.694,4.694,0,0,0-.16,1.23A4.563,4.563,0,0,0,1.105,47.1a4.8,4.8,0,0,0,.659.927c.424.466.359.736-.231.57a7.61,7.61,0,0,1-1.023-.4v.029a4.525,4.525,0,0,0,1.066,2.98A4.662,4.662,0,0,0,3.1,52.434c.611.3.9.471.554.515a4.844,4.844,0,0,1-.622.04q-.212,0-.444-.019c-.244-.021-.288.488.082,1.06a4.69,4.69,0,0,0,1.13,1.2,4.583,4.583,0,0,0,1.509.758c.655.187.787.527.2.878a9.153,9.153,0,0,1-4.8,1.3q-.3,0-.566-.013c-.313-.015-.1.26.5.576a13.008,13.008,0,0,0,6.128,1.481,13.7,13.7,0,0,0,4.684-.79A11.913,11.913,0,0,0,15.2,57.3a14.169,14.169,0,0,0,2.676-3.053,13.617,13.617,0,0,0,1.675-3.6,13.317,13.317,0,0,0,.551-3.764c0-.113,0-.215,0-.3,0-.168.442-.624.939-1.09q.336-.316.643-.663C22.132,44.315,21.933,44.08,21.279,44.271Z" transform="translate(-0.003 -41.648)"/></g></g></svg>
